<svg width="32" height="32" xmlns="http://www.w3.org/2000/svg">
  <defs>
    <linearGradient id="grad" x1="0%" y1="0%" x2="100%" y2="100%">
      <stop offset="0%" style="stop-color:#667eea;stop-opacity:1" />
      <stop offset="100%" style="stop-color:#764ba2;stop-opacity:1" />
    </linearGradient>
  </defs>
  
  <!-- Background circle -->
  <circle cx="16" cy="16" r="15" fill="url(#grad)" stroke="#fff" stroke-width="1"/>
  
  <!-- Cloud icon -->
  <path d="M8 20c-2.2 0-4-1.8-4-4 0-1.5.8-2.8 2-3.5 0-.2 0-.3 0-.5 0-2.8 2.2-5 5-5 2.2 0 4.1 1.4 4.8 3.4.4-.2.8-.4 1.2-.4 1.7 0 3 1.3 3 3s-1.3 3-3 3H8z" fill="white" opacity="0.9"/>
  
  <!-- Gear/ops icon -->
  <circle cx="22" cy="10" r="3" fill="white" opacity="0.8"/>
  <circle cx="22" cy="10" r="1.5" fill="url(#grad)"/>
  
  <!-- Small dots for monitoring -->
  <circle cx="12" cy="8" r="1" fill="#ffd700"/>
  <circle cx="20" cy="22" r="1" fill="#28a745"/>
  <circle cx="6" cy="26" r="1" fill="#dc3545"/>
</svg>